<svg width="327" height="178" viewBox="0 0 327 178" fill="none" xmlns="http://www.w3.org/2000/svg">
<path d="M37.3604 11.5584L0 82.8355L122.095 178H327L176.403 0L37.3604 11.5584Z" fill="#CAD8E9"/>
<path d="M140.973 107.336L141.393 92.006H130.179C130.221 89.15 130.347 85.538 130.515 83.354H132.909L133.371 85.622H148.911L148.491 92.006H145.677L146.139 107L140.973 107.336ZM159.65 100.868L155.408 98.894C157.214 95.24 157.592 94.316 157.592 93.476C157.592 92.678 157.046 92.258 155.618 92.006L151.418 91.25C151.46 88.898 151.628 85.538 151.796 83.228H154.19L154.526 85.244L158.012 85.664C160.952 86.042 162.128 87.47 162.128 90.704C162.128 92.846 161.246 96.416 159.65 100.868Z" fill="black"/>
</svg>
