<svg width="257" height="212" viewBox="0 0 257 212" fill="none" xmlns="http://www.w3.org/2000/svg">
<path d="M62.2332 0L0 132.211L8.45142 205.062L148.668 212L257 150.713L197.84 42.4L62.2332 0Z" fill="#CAD8E9"/>
<path d="M102.141 130.21L102.015 123.616C101.889 116.308 101.007 115.006 96.0928 115.006H87.0628C87.1048 112.15 87.2308 108.538 87.3988 106.354H89.7928L90.2548 108.622H98.9488C104.409 108.622 106.257 110.806 106.257 117.358C106.257 121.516 106.089 124.54 105.585 130L102.141 130.21ZM87.4828 130.168L88.0708 118.996H93.2368L93.4048 130L87.4828 130.168ZM112.3 130.588V124.12L113.014 123.616C119.146 119.29 120.784 117.736 120.784 116.098C120.784 115.426 120.28 115.006 119.482 115.006H109.738C109.108 112.612 108.856 111.394 108.772 110.134L108.352 101.398L113.434 100.222C113.602 100.642 113.644 101.062 113.644 101.44C113.644 102.91 113.056 105.346 112.048 107.992V108.622H120.532C123.472 108.622 124.9 110.26 124.9 113.662C124.9 118.156 121.33 124.162 115.66 129.16L114.022 130.588H112.3ZM138.677 129.916L135.485 130.336L134.939 126.64H134.561L128.219 130.504H126.539V123.826C129.647 123.07 131.537 122.818 134.393 122.776L134.183 120.676C133.679 115.888 133.259 115.216 130.445 114.712L127.841 114.25C127.925 111.52 128.009 108.244 128.177 106.27H130.571L130.949 108.244L132.839 108.538C136.997 109.168 137.711 110.092 138.131 115.426C138.425 119.962 138.551 123.322 138.677 129.916ZM159.659 109.672C160.163 110.218 160.415 110.764 160.625 111.772C160.625 115.804 158.693 121.726 155.669 126.85C152.519 129.16 146.177 131.806 141.053 132.898V126.388C143.867 125.506 145.967 124.876 147.605 124.33C146.555 120.508 146.135 118.828 145.631 117.022C145.211 115.468 144.749 114.88 143.573 114.46L141.431 113.704L142.103 107.488L143.405 107.404L145.463 107.95C149.243 108.958 149.411 111.898 149.705 115.51L150.335 123.364C151.259 123.028 152.015 122.692 152.729 122.356C154.871 121.264 156.383 119.122 156.383 117.106C156.383 115.384 155.921 114.838 153.485 113.578L152.183 112.906L154.157 107.278H155.249C157.013 107.908 158.987 108.916 159.659 109.672Z" fill="black"/>
</svg>
